<svg width="128" height="128" viewBox="0 0 128 128" fill="none" xmlns="http://www.w3.org/2000/svg">
<path d="M44.634 57.361C42.035 57.361 39.135 58.362 38.527 61.657C38.463 62.008 38.694 62.174 38.918 62.224L41.581 62.544C41.827 62.53 41.995 62.264 42.042 62.011C42.27 60.877 43.202 60.342 44.243 60.342C44.806 60.342 45.436 60.535 45.77 61.052C46.151 61.628 46.124 62.411 46.124 63.076V63.467C44.542 63.649 42.458 63.759 40.977 64.425C39.268 65.185 38.065 66.732 38.065 69.005C38.065 71.918 39.85 73.371 42.148 73.371C44.088 73.371 45.161 72.915 46.657 71.349C47.154 72.087 47.313 72.422 48.219 73.195C48.3196 73.2519 48.4356 73.2757 48.5505 73.263C48.6654 73.2502 48.7733 73.2016 48.859 73.124V73.159C49.404 72.662 50.394 71.758 50.953 71.278C51.175 71.091 51.127 70.785 50.953 70.532C50.453 69.825 49.924 69.256 49.924 67.94V63.574C49.924 61.724 50.08 60.018 48.752 58.746C47.706 57.715 45.961 57.361 44.634 57.361V57.361ZM80.42 57.361C77.82 57.361 74.922 58.362 74.314 61.657C74.25 62.008 74.48 62.174 74.704 62.224L77.368 62.544C77.614 62.53 77.783 62.264 77.829 62.011C78.058 60.877 78.99 60.342 80.03 60.342C80.594 60.342 81.223 60.535 81.556 61.052C81.937 61.628 81.875 62.411 81.875 63.076V63.467C80.293 63.649 78.245 63.759 76.763 64.425C75.052 65.185 73.853 66.732 73.853 69.005C73.853 71.918 75.638 73.371 77.935 73.371C79.873 73.371 80.946 72.915 82.444 71.349C82.939 72.087 83.1 72.422 84.007 73.195C84.1074 73.252 84.2233 73.2758 84.338 73.2631C84.4528 73.2503 84.5606 73.2016 84.646 73.124V73.159C85.192 72.662 86.183 71.758 86.741 71.278C86.963 71.091 86.912 70.785 86.741 70.532C86.241 69.825 85.711 69.256 85.711 67.94V63.574C85.711 61.724 85.831 60.018 84.505 58.746C83.455 57.715 81.746 57.361 80.42 57.361ZM60.29 57.503C58.61 57.503 57.366 58.351 56.705 60.166H56.669V58.284C56.6604 58.1552 56.6054 58.0339 56.5142 57.9425C56.423 57.8511 56.3018 57.7959 56.173 57.787H53.616C53.4752 57.7888 53.3407 57.8456 53.2411 57.9451C53.1416 58.0447 53.0848 58.1792 53.083 58.32V72.698C53.0956 72.8257 53.1522 72.9451 53.243 73.0357C53.3338 73.1264 53.4533 73.1827 53.581 73.195H56.314C56.4549 73.1937 56.5896 73.1371 56.6891 73.0374C56.7886 72.9377 56.845 72.8029 56.846 72.662V65.029C56.846 63.365 56.766 61.089 58.728 61.089C60.665 61.089 60.396 63.428 60.396 65.029V72.662C60.396 72.933 60.618 73.177 60.894 73.195H63.627C63.917 73.195 64.159 72.952 64.159 72.662V65.029C64.159 64.213 64.126 63.023 64.407 62.296C64.688 61.569 65.378 61.089 66.041 61.089C66.83 61.089 67.435 61.364 67.639 62.331C67.765 62.906 67.71 64.425 67.71 65.029V72.662C67.71 72.933 67.932 73.177 68.206 73.195H70.94C71.23 73.195 71.472 72.952 71.472 72.662V63.574C71.472 62.029 71.626 60.276 70.762 59.065C69.997 57.977 68.747 57.502 67.602 57.502C65.997 57.502 64.501 58.35 63.839 60.165C63.075 58.351 61.997 57.503 60.29 57.503V57.503ZM106.762 57.503C102.813 57.503 100.62 60.976 100.62 65.456C100.62 69.904 102.787 73.478 106.762 73.478C110.585 73.478 113.011 69.986 113.011 65.597C113.011 61.06 110.813 57.503 106.762 57.503V57.503ZM122.347 57.503C120.46 57.503 119.381 58.446 118.619 60.414H118.584V58.213C118.535 57.991 118.326 57.836 118.087 57.823H115.566C115.436 57.8201 115.309 57.8656 115.211 57.9508C115.112 58.036 115.049 58.1547 115.033 58.284V72.662C115.033 72.933 115.258 73.177 115.53 73.195H118.229C118.369 73.1927 118.503 73.1357 118.603 73.0362C118.702 72.9367 118.758 72.8025 118.76 72.662V64.923C118.76 63.953 118.843 63.068 119.223 62.19C119.529 61.493 120.122 61.053 120.785 61.053C122.668 61.053 122.488 63.348 122.488 64.923V72.734C122.506 72.856 122.566 72.9682 122.656 73.0521C122.747 73.136 122.863 73.1867 122.986 73.196H125.719C125.848 73.1961 125.974 73.1494 126.071 73.0645C126.169 72.9796 126.233 72.8622 126.251 72.734V63.681C126.251 62.289 126.254 60.357 125.541 59.207C124.777 57.966 123.566 57.503 122.347 57.503V57.503ZM89.544 57.752C89.266 57.752 89.047 57.972 89.046 58.284V60.343C89.047 60.653 89.259 60.874 89.544 60.876H94.23L88.869 68.792C88.543 69.303 88.515 69.881 88.515 70.213V72.308C88.515 72.61 88.843 72.938 89.154 72.769C92.21 71.101 95.871 71.249 98.633 72.734C98.969 72.917 99.308 72.574 99.308 72.272V70.07C99.3002 69.9079 99.2502 69.7506 99.1631 69.6136C99.0759 69.4766 98.9546 69.3648 98.811 69.289C97.243 68.388 95.423 68.111 93.7 68.153L98.35 61.338C98.78 60.725 99.02 60.357 99.024 60.059V58.285C99.024 57.979 98.815 57.753 98.528 57.753H89.544V57.752ZM106.762 60.45C107.627 60.45 108.266 60.836 108.573 61.834C108.927 62.986 108.964 64.422 108.964 65.633C108.964 67.479 108.878 70.532 106.763 70.532C104.624 70.532 104.633 66.752 104.633 64.994C104.632 63.241 104.75 60.45 106.762 60.45V60.45ZM46.089 65.704V66.308C46.089 67.4 46.129 68.318 45.592 69.289C45.158 70.079 44.476 70.568 43.711 70.568C42.666 70.568 42.043 69.719 42.043 68.508C42.042 66.121 44.117 65.704 46.089 65.704V65.704ZM81.875 65.704V66.308C81.875 67.4 81.915 68.318 81.379 69.289C80.944 70.079 80.267 70.568 79.497 70.568C78.45 70.568 77.828 69.719 77.828 68.508C77.828 66.121 79.901 65.704 81.875 65.704V65.704ZM99.59 73.656V75.716H100.976V73.656H99.59V73.656ZM59.438 74.012V88.674H60.716V87.36C60.988 87.881 61.298 88.27 61.674 88.531C62.05 88.793 62.48 88.922 62.951 88.922C63.89 88.922 64.701 88.443 65.401 87.467C66.102 86.49 66.466 85.075 66.466 83.278C66.466 82.1 66.315 81.124 66.004 80.297C65.693 79.471 65.279 78.856 64.762 78.45C64.243 78.044 63.655 77.811 63.023 77.811C62.571 77.811 62.149 77.929 61.779 78.165C61.411 78.401 61.113 78.787 60.821 79.266V74.012H59.438V74.012ZM72.573 77.455C71.611 77.455 70.845 77.74 70.302 78.307C69.759 78.874 69.487 79.603 69.487 80.509C69.487 81.034 69.602 81.481 69.805 81.893C70.007 82.306 70.295 82.641 70.657 82.887C71.021 83.133 71.747 83.457 72.823 83.81C73.568 84.05 74.013 84.254 74.208 84.414C74.489 84.647 74.635 84.952 74.635 85.373C74.635 85.859 74.465 86.265 74.137 86.58C73.809 86.897 73.351 87.041 72.752 87.041C72.152 87.041 71.658 86.873 71.297 86.509C70.935 86.145 70.74 85.591 70.657 84.841L69.273 85.124C69.586 87.402 70.722 88.534 72.681 88.532C73.726 88.532 74.525 88.237 75.13 87.609C75.734 86.981 76.054 86.138 76.054 85.124C76.054 84.576 75.956 84.102 75.77 83.705C75.5986 83.3314 75.3281 83.0118 74.988 82.781C74.652 82.552 73.899 82.245 72.752 81.858C71.918 81.566 71.431 81.352 71.262 81.218C70.978 80.994 70.835 80.688 70.835 80.296C70.835 79.896 70.968 79.557 71.262 79.301C71.556 79.046 72.009 78.911 72.611 78.911C73.669 78.911 74.261 79.492 74.385 80.65L75.735 80.437C75.641 79.705 75.482 79.125 75.239 78.732C74.9781 78.3215 74.6098 77.9902 74.174 77.774C73.709 77.542 73.182 77.455 72.573 77.455V77.455ZM81.059 77.455C79.95 77.455 79.013 77.912 78.289 78.875C77.566 79.838 77.226 81.233 77.226 83.064C77.226 84.828 77.574 86.21 78.289 87.147C79.007 88.081 79.935 88.531 81.095 88.531C82.016 88.531 82.78 88.255 83.402 87.679C84.026 87.104 84.479 86.256 84.715 85.122L83.295 84.874C82.888 86.325 82.135 87.037 81.095 87.039C80.431 87.039 79.889 86.758 79.426 86.152C78.962 85.545 78.7 84.645 78.646 83.454H84.751V82.957C84.751 81.165 84.394 79.82 83.686 78.874C82.977 77.929 82.117 77.455 81.059 77.455V77.455ZM89.473 77.455C89.142 77.455 88.852 77.567 88.585 77.81C88.318 78.052 88.018 78.554 87.697 79.3V77.667H86.454V88.282H87.839V82.744C87.839 81.972 87.913 81.228 88.088 80.543C88.188 80.149 88.377 79.84 88.62 79.62C88.864 79.399 89.143 79.3 89.436 79.3C89.762 79.3 90.086 79.431 90.43 79.691L90.892 78.023C90.41 77.637 89.937 77.455 89.473 77.455V77.455ZM106.442 77.455C105.346 77.455 104.443 77.917 103.743 78.84C103.047 79.763 102.68 81.149 102.68 82.993C102.68 84.824 103.052 86.211 103.743 87.147C104.436 88.081 105.302 88.531 106.371 88.531C107.255 88.531 108.013 88.203 108.643 87.537C109.273 86.872 109.657 85.891 109.815 84.626L108.465 84.413C108.364 85.318 108.129 85.97 107.755 86.401C107.382 86.831 106.932 87.04 106.406 87.04C105.736 87.04 105.165 86.727 104.736 86.082C104.309 85.436 104.098 84.402 104.098 82.958C104.098 81.558 104.325 80.548 104.772 79.905C105.22 79.261 105.793 78.911 106.476 78.911C106.933 78.911 107.323 79.088 107.648 79.442C107.975 79.798 108.191 80.36 108.322 81.076L109.673 80.793C109.511 79.674 109.152 78.831 108.571 78.272C107.991 77.712 107.287 77.455 106.442 77.455V77.455ZM114.359 77.455C113.249 77.455 112.313 77.912 111.589 78.875C110.866 79.838 110.524 81.233 110.524 83.064C110.524 84.828 110.873 86.21 111.589 87.147C112.308 88.081 113.235 88.531 114.394 88.531C115.312 88.531 116.079 88.255 116.702 87.679C117.324 87.104 117.777 86.256 118.016 85.122L116.596 84.874C116.186 86.325 115.468 87.037 114.43 87.039C113.766 87.039 113.189 86.758 112.726 86.152C112.263 85.545 112.001 84.645 111.945 83.454H118.051V82.957C118.051 81.165 117.694 79.82 116.986 78.874C116.28 77.929 115.418 77.455 114.359 77.455V77.455ZM122.561 77.455C121.595 77.455 120.832 77.74 120.289 78.307C119.744 78.873 119.472 79.603 119.472 80.509C119.472 81.034 119.554 81.481 119.756 81.893C119.956 82.306 120.245 82.641 120.609 82.887C120.97 83.133 121.699 83.457 122.775 83.81C123.518 84.05 124.001 84.254 124.195 84.414C124.476 84.647 124.621 84.952 124.621 85.373C124.621 85.859 124.453 86.265 124.124 86.58C123.798 86.897 123.339 87.041 122.74 87.041C122.138 87.041 121.646 86.873 121.284 86.509C120.923 86.145 120.689 85.591 120.609 84.841L119.225 85.124C119.538 87.402 120.671 88.534 122.632 88.532C123.679 88.532 124.513 88.237 125.117 87.609C125.721 86.981 126.039 86.138 126.039 85.124C126.039 84.576 125.943 84.102 125.757 83.705C125.573 83.329 125.291 83.0097 124.94 82.781C124.604 82.552 123.886 82.245 122.74 81.858C121.905 81.566 121.383 81.352 121.213 81.218C120.93 80.994 120.787 80.688 120.787 80.296C120.787 79.896 120.954 79.557 121.249 79.301C121.543 79.046 121.999 78.911 122.599 78.911C123.657 78.911 124.248 79.492 124.373 80.65L125.722 80.437C125.628 79.705 125.47 79.125 125.225 78.732C124.964 78.3215 124.597 77.9902 124.161 77.774C123.698 77.542 123.167 77.455 122.561 77.455ZM90.893 77.668L93.983 88.283H95.296L98.385 77.668H96.965L95.154 84.165C94.935 84.95 94.741 85.629 94.621 86.188C94.471 85.483 94.325 84.742 94.125 84.022L92.35 77.668H90.893ZM99.59 77.668V88.283H100.976V77.668H99.59V77.668ZM54.077 77.811C52.979 77.811 52.096 78.303 51.38 79.266C50.663 80.229 50.278 81.624 50.278 83.455C50.278 85.22 50.633 86.568 51.343 87.502C52.052 88.437 53 88.922 54.149 88.922C55.06 88.922 55.804 88.61 56.42 88.034C57.036 87.459 57.462 86.611 57.699 85.478L56.314 85.265C55.91 86.716 55.178 87.428 54.149 87.43C53.49 87.43 52.939 87.149 52.48 86.542C52.02 85.936 51.753 85.036 51.699 83.845H57.734L57.77 83.348C57.77 81.556 57.406 80.176 56.705 79.229C56.004 78.284 55.124 77.811 54.077 77.811V77.811ZM38.493 78.059L40.978 88.674H42.433L44.067 80.509L44.351 82.319L45.664 88.674H47.084L49.605 78.059H48.292L46.906 84.2L46.444 86.26L46.018 84.2L44.811 78.058H43.391L42.113 84.271L41.687 86.472L41.191 84.2L39.912 78.058H38.493V78.059ZM81.023 78.911C81.713 78.911 82.281 79.244 82.727 79.905C83.033 80.357 83.233 81.045 83.294 81.964H78.714C78.758 81.032 79.021 80.314 79.461 79.763C79.901 79.213 80.404 78.911 81.023 78.911V78.911ZM114.323 78.911C115.011 78.911 115.581 79.244 116.027 79.905C116.335 80.357 116.533 81.045 116.596 81.964H112.015C112.059 81.032 112.323 80.314 112.761 79.763C113.198 79.213 113.704 78.911 114.323 78.911V78.911ZM54.077 79.301C54.759 79.301 55.307 79.635 55.747 80.296C56.051 80.748 56.252 81.436 56.314 82.355H51.804C51.847 81.423 52.079 80.668 52.515 80.119C52.949 79.567 53.463 79.301 54.077 79.301ZM62.882 79.301C63.497 79.301 64.022 79.643 64.445 80.296C64.868 80.948 65.049 81.955 65.049 83.349C65.049 84.706 64.849 85.719 64.409 86.402C63.97 87.086 63.449 87.431 62.883 87.431C62.467 87.431 62.089 87.291 61.747 87.005C61.403 86.719 61.152 86.309 60.965 85.763C60.779 85.217 60.682 84.376 60.682 83.278C60.682 81.984 60.913 81.015 61.356 80.331C61.799 79.647 62.316 79.301 62.882 79.301V79.301ZM18.594 68.048L13.304 70.319L18.203 72.414L23.884 70.319L18.594 68.048V68.048ZM10.642 70.887L10.464 81.113L18.204 84.521V73.905L10.642 70.887V70.887ZM26.546 70.887L19.552 73.55V83.562L26.546 80.722V70.887ZM34.889 39.078L29.563 41.349L34.498 43.444L40.179 41.349L34.889 39.078ZM27.504 42.096V52.32L34.108 54.237L34.321 44.935L27.504 42.096ZM42.273 42.663L36.024 45.326V55.373L42.273 52.533V42.663ZM9.877 53.468L4.587 55.74L9.486 57.835L15.166 55.74L9.877 53.468ZM1.926 56.309L1.748 66.533L9.487 69.941V59.326L1.926 56.309V56.309ZM17.83 56.309L10.836 58.971V68.983L17.83 66.143V56.309V56.309ZM26.918 53.091L21.628 55.362L26.527 57.456L32.207 55.362L26.918 53.091ZM18.966 55.93L18.789 66.155L26.528 69.563V58.948L18.966 55.93V55.93ZM34.871 55.93L27.877 58.593V68.605L34.871 65.764V55.93V55.93ZM51.533 39.078L46.244 41.349L51.143 43.444L56.824 41.349L51.533 39.078ZM43.581 41.918L43.403 52.143L51.143 55.55V44.936L43.581 41.918V41.918ZM59.485 41.918L52.491 44.581V54.592L59.485 51.752V41.918V41.918Z" fill="#F7A80D"/>
</svg>
