<svg width="128" height="128" viewBox="0 0 128 128" fill="none" xmlns="http://www.w3.org/2000/svg">
<path d="M51.3 17.7H23.2C17.6 17.7 13 22.3 13 28C12.8 33.5 17.2 38.1 22.7 38.3H51.6L51.3 17.7V17.7Z" fill="#073042"/>
<path d="M115 109.3H23.2C17.5 109.3 13 104.7 13 99.0004V27.9004C13 33.6004 17.6 38.2004 23.2 38.3004H100.1C100.1 38.3004 115.1 37.0004 115.1 48.3004V109.3H115Z" fill="#4285F4"/>
<path d="M72.1998 72.8997C76.2998 69.7997 77.0998 63.9997 73.9998 59.9997C72.2998 57.7997 69.6998 56.3997 66.8998 56.2997H67.1998C67.6998 56.1997 68.2998 56.1997 68.7998 56.2997V50.5997C68.7998 49.8997 68.4998 49.2997 67.8998 48.9997C66.9998 48.4997 65.8998 48.7997 65.3998 49.6997C65.1998 49.9997 65.0998 50.2997 65.1998 50.6997V56.4997C60.1998 57.2997 56.6998 61.9997 57.4998 67.0997V67.1997C57.8998 69.5997 59.1998 71.7997 61.1998 73.1997L44.2998 109.4H55.2998L63.0998 92.7997C63.9998 90.7997 66.3998 89.8997 68.4998 90.8997C69.2998 91.2997 69.9998 91.9997 70.3998 92.7997L78.4998 109.4H89.6998L72.1998 72.8997ZM66.4998 71.2997C63.2998 71.2997 60.7998 68.6997 60.7998 65.4997C60.7998 62.2997 63.3998 59.7997 66.5998 59.8997C68.0998 59.8997 69.3998 60.4997 70.4998 61.4997C72.7998 63.6997 72.7998 67.2997 70.5998 69.5997C69.5998 70.5997 68.0998 71.2997 66.4998 71.2997Z" fill="#3870B2"/>
<path d="M45.2 22.7H84.6V29.9H45.2V22.7Z" fill="white"/>
<path d="M63.5 59.8C66.6 59.8 69.2 62.4 69.1 65.6C69.1 68.7 66.5 71.3 63.3 71.2C60.2 71.2 57.7 68.6 57.7 65.5C57.7 64 58.3 62.6 59.4 61.5C60.5 60.4 62 59.8 63.5 59.8V59.8ZM65.7 56.5V50.5C65.7 49.8 65.4 49.2 64.8 48.9C63.9 48.4 62.8 48.7 62.3 49.6C62.1 49.9 62 50.2 62.1 50.6V56.4C57.1 57.2 53.6 61.9 54.4 67V67.1C54.8 69.5 56.1 71.7 58.1 73.1L36.8 118.8C36 120.4 36.1 122.4 37.2 123.9C38.8 126.2 41.9 126.8 44.2 125.2C45 124.7 45.6 123.9 46 123.1L60.2 92.7C61.1 90.7 63.5 89.8 65.6 90.8C66.4 91.2 67.1 91.9 67.5 92.7L82 122.8C83.2 125.3 86.2 126.3 88.7 125.1C91.2 123.9 92.2 120.9 91 118.4L69.1 72.9C73.1 69.7 73.8 63.8 70.6 59.8C69.4 58.2 67.7 57.1 65.7 56.5" fill="#073042"/>
<path d="M78.8 29.1C77.3 29.1 76.1 28 76.1 26.5C76.1 25.8 76.4 25 76.9 24.5C78 23.5 79.6 23.5 80.7 24.5C81.2 25 81.5 25.7 81.5 26.4C81.4 27.9 80.3 29 78.8 29.1M49.2 29C47.7 29 46.5 27.8 46.5 26.4C46.5 25.7 46.8 25 47.3 24.5C48.2 23.4 49.9 23.2 51 24.1H51.1C52.2 25.1 52.3 26.8 51.3 27.9L51 28.3C50.5 28.8 49.8 29.1 49.1 29.1M79.6 12.9L84.9 3.7C85.2 3.2 85 2.6 84.6 2.2C84.1 2 83.6 2.1 83.3 2.5L77.8 12C69 8.1 59 8.1 50.3 12L44.9 2.6C44.7 2.3 44.3 2 43.9 2C43.5 2 43.1 2.2 42.9 2.6C42.7 2.9 42.7 3.4 42.9 3.7L48.3 12.9C38.9 18 32.8 27.6 31.9 38.2H96.1C95.3 27.5 89.1 18 79.7 12.9" fill="#3DDC84"/>
<path d="M105.6 58.1H101.4C101.2 58.2 101 58.4 101 58.7V125.2C101 125.5 101.2 125.7 101.5 125.7H105.9C111 125.7 115.1 121.5 115.1 116.5V48.8C115.1 53.9 111 58 105.9 58H105.6V58.1Z" fill="#073042"/>
</svg>
