<svg width="128" height="128" viewBox="0 0 128 128" fill="none" xmlns="http://www.w3.org/2000/svg">
<path d="M40.53 77.82V50.74H42V55C42.1736 54.8113 42.334 54.6108 42.48 54.4C43.0807 53.1531 44.0243 52.1033 45.2004 51.3736C46.3764 50.6439 47.7361 50.2645 49.12 50.28C52.47 50.18 55.19 51.42 56.79 54.4C57.8081 56.2512 58.3683 58.3192 58.424 60.4311C58.4797 62.5431 58.0291 64.6377 57.11 66.54C55.62 69.88 51.94 71.54 48 70.93C46.7739 70.8256 45.5935 70.4158 44.5664 69.738C43.5393 69.0603 42.6983 68.1362 42.12 67.05V77.82H40.53ZM42 60.32C42.13 61.64 42.18 62.58 42.33 63.5C42.91 67.12 45.05 69.27 48.41 69.66C49.9877 69.9193 51.6065 69.6235 52.9905 68.823C54.3745 68.0225 55.4381 66.7668 56 65.27C56.6457 63.7304 56.9564 62.071 56.9116 60.402C56.8668 58.7331 56.4674 57.0928 55.74 55.59C55.1402 54.2484 54.1202 53.1384 52.8339 52.4276C51.5477 51.7168 50.0651 51.4439 48.61 51.65C47.2439 51.749 45.9425 52.2712 44.8869 53.144C43.8313 54.0168 43.0739 55.1968 42.72 56.52C42.4068 57.7717 42.1664 59.0405 42 60.32V60.32ZM88.41 64C88.1873 65.9066 87.2797 67.6675 85.8559 68.955C84.4322 70.2426 82.5894 70.9693 80.67 71C74.51 71.31 71.62 67.22 71.16 62.5C70.8407 59.9368 71.2569 57.3356 72.36 55C73.1282 53.3979 74.3863 52.0818 75.9522 51.2422C77.5181 50.4027 79.3105 50.0832 81.07 50.33C82.7428 50.4718 84.3286 51.1362 85.6028 52.2292C86.8771 53.3222 87.7752 54.7883 88.17 56.42C88.483 57.9061 88.7133 59.4084 88.86 60.92H72.67C72.37 65.2 74.67 68.64 77.93 69.47C81.99 70.47 85.46 68.71 86.72 64.85C87 63.86 87.51 63.72 88.41 64V64ZM72.67 59.55H87.14C87.05 54.99 84.21 51.69 80.36 51.64C76 51.57 72.86 54.75 72.67 59.55ZM91.39 64.1H92.81C92.8625 65.1449 93.202 66.155 93.7912 67.0195C94.3805 67.884 95.1966 68.5692 96.15 69C97.3472 69.5387 98.6505 69.8006 99.9629 69.7659C101.275 69.7313 102.563 69.4011 103.73 68.8C104.366 68.5133 104.899 68.0383 105.256 67.4393C105.614 66.8403 105.779 66.1459 105.73 65.45C105.767 64.7788 105.583 64.114 105.208 63.5564C104.833 62.9987 104.286 62.5787 103.65 62.36C102.09 61.78 100.43 61.46 98.84 60.95C97.1856 60.4789 95.568 59.8873 94 59.18C91.44 57.93 91.28 53.06 94.18 51.52C95.6649 50.682 97.3361 50.2293 99.0409 50.2031C100.746 50.1769 102.43 50.5781 103.94 51.37C104.855 51.8755 105.594 52.6479 106.058 53.5841C106.523 54.5203 106.691 55.5758 106.54 56.61H105.32C105.32 56.55 105.21 56.5 105.21 56.44C105.06 52.55 101.8 51.35 98.3 51.69C97.2552 51.8189 96.2404 52.1267 95.3 52.6C94.7351 52.8583 94.2643 53.2857 93.9526 53.8231C93.6409 54.3605 93.5037 54.9813 93.56 55.6C93.5617 56.2189 93.7549 56.8222 94.1129 57.3271C94.471 57.8319 94.9765 58.2137 95.56 58.42C97.1 58.98 98.71 59.34 100.29 59.78C101.56 60.13 102.88 60.36 104.11 60.78C104.978 61.0646 105.739 61.6061 106.293 62.3329C106.847 63.0597 107.166 63.9374 107.21 64.85C107.358 65.8499 107.188 66.8711 106.723 67.7686C106.258 68.6662 105.522 69.3944 104.62 69.85C101.28 71.74 95.78 71.24 93.33 68.85C92.7091 68.2255 92.218 67.4843 91.885 66.669C91.552 65.8537 91.3838 64.9806 91.39 64.1ZM125.21 56.61H123.88C123.88 56.43 123.81 56.27 123.79 56.12C123.768 55.1231 123.405 54.1638 122.761 53.4028C122.116 52.6419 121.23 52.1254 120.25 51.94C118.401 51.4096 116.429 51.5045 114.64 52.21C113.933 52.4128 113.31 52.8388 112.865 53.4246C112.42 54.0103 112.176 54.7243 112.17 55.46C112.145 56.1825 112.37 56.8914 112.808 57.4671C113.245 58.0429 113.867 58.45 114.57 58.62C116.57 59.24 118.62 59.62 120.65 60.18C121.308 60.3379 121.956 60.5349 122.59 60.77C123.537 61.1089 124.36 61.7257 124.951 62.5397C125.543 63.3537 125.874 64.3272 125.904 65.3328C125.933 66.3384 125.658 67.3295 125.115 68.1764C124.572 69.0233 123.786 69.6868 122.86 70.08C121.449 70.7208 119.919 71.0598 118.37 71.0753C116.82 71.0908 115.284 70.7825 113.86 70.17C112.689 69.665 111.701 68.8135 111.029 67.7301C110.357 66.6466 110.033 65.3833 110.1 64.11H111.4C111.641 65.2703 112.16 66.3545 112.914 67.2686C113.668 68.1828 114.633 68.8994 115.727 69.3564C116.82 69.8135 118.008 69.9971 119.188 69.8914C120.369 69.7857 121.505 69.394 122.5 68.75C123.106 68.4352 123.609 67.9532 123.949 67.3612C124.29 66.7692 124.453 66.092 124.42 65.41C124.45 64.7384 124.26 64.0753 123.88 63.5213C123.499 62.9673 122.948 62.5525 122.31 62.34C120.75 61.76 119.09 61.45 117.5 60.94C115.836 60.4761 114.209 59.8913 112.63 59.19C110.13 57.96 109.93 53.13 112.78 51.59C114.283 50.7169 115.987 50.2479 117.726 50.2287C119.464 50.2094 121.178 50.6405 122.7 51.48C123.571 51.9997 124.271 52.7613 124.717 53.6721C125.163 54.5829 125.334 55.6036 125.21 56.61V56.61ZM38.1 70.51C37.5764 70.7083 36.9984 70.7078 36.4751 70.5088C35.9518 70.3098 35.5195 69.926 35.26 69.43C33.63 66.99 31.83 64.66 30.1 62.28L29.35 61.28C27.29 64.04 25.23 66.69 23.35 69.44C23.1051 69.9141 22.6962 70.283 22.1994 70.478C21.7027 70.673 21.1521 70.6808 20.65 70.5L28.38 60.13L21.19 50.76C21.7076 50.5731 22.2738 50.5706 22.793 50.7527C23.3122 50.9349 23.7527 51.2907 24.04 51.76C25.71 54.2 27.56 56.53 29.4 59C31.25 56.55 33.08 54.21 34.79 51.79C35.0363 51.3236 35.4454 50.964 35.9396 50.7796C36.4337 50.5953 36.9784 50.5989 37.47 50.79L34.68 54.49C33.43 56.14 32.2 57.8 30.9 59.41C30.7953 59.5038 30.7115 59.6186 30.6541 59.747C30.5967 59.8754 30.5671 60.0144 30.5671 60.155C30.5671 60.2956 30.5967 60.4346 30.6541 60.563C30.7115 60.6914 30.7953 60.8062 30.9 60.9C33.29 64.07 35.66 67.25 38.1 70.51V70.51ZM70.92 50.66V52.06C69.9086 51.9937 68.8945 52.1401 67.9432 52.49C66.9919 52.8398 66.1245 53.3852 65.3971 54.091C64.6696 54.7968 64.0982 55.6473 63.7198 56.5876C63.3413 57.5279 63.1643 58.537 63.2 59.55V70.55H61.77V50.74H63.17V54.8C64.9 51.84 67.57 50.74 70.92 50.66V50.66ZM2.13 60C2.34 59 2.47 57.91 2.76 56.89C4.49 50.74 11.54 48.18 16.39 51.99C19.23 54.22 19.94 57.38 19.8 60.94H3.8C3.54 67.3 8.13 71.14 14 69.18C14.9522 68.8394 15.8046 68.267 16.4802 67.5146C17.1559 66.7621 17.6335 65.8532 17.87 64.87C18.18 63.87 18.68 63.7 19.63 63.99C19.4735 65.2074 19.0431 66.3735 18.371 67.4006C17.699 68.4277 16.8029 69.2891 15.75 69.92C14.0104 70.8713 12.0146 71.2481 10.0478 70.9967C8.08114 70.7452 6.24431 69.8784 4.8 68.52C3.37116 66.9134 2.50721 64.8835 2.34 62.74C2.34 62.4 2.21 62.06 2.14 61.74C2.13334 61.1467 2.13 60.5667 2.13 60V60ZM3.82 59.57H18.29C18.2 54.96 15.29 51.69 11.41 51.66C7.09 51.6 4 54.8 3.81 59.55L3.82 59.57Z" fill="black"/>
</svg>
