<svg width="128" height="128" viewBox="0 0 128 128" fill="none" xmlns="http://www.w3.org/2000/svg">
<path d="M124.737 58.378L69.621 3.26401C66.449 0.0900145 61.301 0.0900145 58.124 3.26401L46.68 14.71L61.198 29.228C64.573 28.089 68.441 28.853 71.13 31.542C73.833 34.248 74.591 38.149 73.424 41.535L87.416 55.528C90.801 54.361 94.708 55.115 97.41 57.823C101.19 61.6 101.19 67.723 97.41 71.502C96.5117 72.4007 95.4452 73.1137 94.2713 73.6001C93.0974 74.0865 91.8392 74.3368 90.5685 74.3368C89.2978 74.3368 88.0396 74.0865 86.8657 73.6001C85.6918 73.1137 84.6253 72.4007 83.727 71.502C82.3774 70.1516 81.4574 68.4321 81.0828 66.56C80.7083 64.6878 80.8959 62.7468 81.622 60.981L68.574 47.933L68.572 82.274C69.5187 82.7402 70.383 83.3577 71.131 84.102C74.909 87.879 74.909 94 71.131 97.785C67.352 101.562 61.227 101.562 57.452 97.785C53.674 94.001 53.674 87.88 57.452 84.102C58.3571 83.1954 59.4337 82.4782 60.619 81.992V47.333C59.4328 46.8482 58.3559 46.1304 57.452 45.222C54.59 42.362 53.901 38.162 55.369 34.646L41.056 20.333L3.264 58.123C1.73932 59.6482 0.882797 61.7164 0.882797 63.873C0.882797 66.0296 1.73932 68.0979 3.264 69.623L58.381 124.737C61.555 127.911 66.701 127.911 69.88 124.737L124.738 69.879C126.262 68.3534 127.119 66.285 127.118 64.1283C127.118 61.9717 126.262 59.9033 124.737 58.378Z" fill="#F34F29"/>
</svg>
