<svg width="128" height="128" viewBox="0 0 128 128" fill="none" xmlns="http://www.w3.org/2000/svg">
<path d="M64.461 7.13599L8.52899 63.173L64.308 119.071L120.393 63.034L64.461 7.13599Z" fill="#019833"/>
<path d="M64.308 119.211L8.37601 63.174L8.52901 63.035L64.614 6.85797L120.546 62.895L120.393 63.034L64.308 119.211V119.211ZM8.68201 63.174L64.308 118.933L120.24 63.035L64.614 7.27597L8.68201 63.174Z" fill="black"/>
<path d="M64.308 7.275V2.396L3.319 63.452H8.529L64.308 7.275Z" fill="#66FE98"/>
<path d="M8.52899 63.452H3.01199L3.16499 63.313L64.307 2.11798V7.27598L8.52799 63.453L8.52899 63.452ZM3.62499 63.313H8.37499L64.154 7.27598V2.67598L3.62499 63.314V63.313Z" fill="black"/>
<path d="M64.154 7.275V2.396L125.143 63.452H119.933L64.154 7.275Z" fill="#45FE02"/>
<path d="M125.297 63.452H119.78L64.001 7.41502V2.25702L64.154 2.39602L125.296 63.452H125.297ZM119.934 63.313H124.684L64.308 2.67502V7.27502L119.934 63.312V63.313Z" fill="black"/>
<path d="M64.308 119.35V124.229L3.319 63.313H8.529L64.308 119.35Z" fill="#017D17"/>
<path d="M64.308 124.508L64.155 124.369L3.013 63.174H8.53L64.309 119.351V124.509L64.308 124.508ZM3.625 63.313L64.154 123.951V119.351L8.375 63.3139H3.625V63.313Z" fill="black"/>
<path d="M33.507 112.659H21.708L17.111 110.01V22.608H13.433L10.368 19.541V9.92299L13.586 6.43799H54.807L58.485 10.202V19.263L55.42 23.027H52.355V52.022L81.624 23.027H79.938L76.567 19.403V9.78499L79.938 6.71799H121.466L124.684 10.064V19.125L33.507 112.66V112.659ZM22.934 108.198H31.669L120.394 17.172V11.736L119.781 11.039H81.625L81.012 11.597V17.452L81.931 18.428H92.504L47.912 62.477V18.428H53.429L54.195 17.592V12.016L53.122 10.901H15.578L14.812 11.737V17.731L15.272 18.289H21.708V107.363L22.934 108.199V108.198Z" fill="black"/>
<path d="M64.154 119.35V124.229L125.143 63.173H119.933L64.154 119.35Z" fill="#005D04"/>
<path d="M64.001 124.508V119.35L119.78 63.173H125.297L125.144 63.312L64.002 124.507L64.001 124.508ZM64.307 119.35V123.95L124.836 63.312H120.086L64.307 119.349V119.35Z" fill="black"/>
<path d="M63.848 125.065L1.94 63.173L64.002 1.00201L125.91 62.894L63.848 125.065ZM3.932 63.173L63.848 123.253L124.071 63.034L64.155 2.95401L3.932 63.173Z" fill="black"/>
<path d="M54.347 12.294L56.492 11.179L54.193 8.94897H14.657L12.665 10.901V18.568L14.964 20.798L16.037 18.568L14.658 17.174V11.738L15.731 10.762H53.581L54.347 12.295V12.294Z" fill="#FEFEFE"/>
<path d="M14.965 20.936L12.513 18.566V10.899L14.658 8.80798H54.347L56.799 11.178L54.347 12.433L53.428 10.9H15.578L14.659 11.736V17.033L16.038 18.427L14.965 20.936V20.936ZM12.82 18.427L14.965 20.518L15.884 18.566L14.505 17.172V11.736L15.578 10.76H53.428L54.347 12.293L56.339 11.178L54.194 9.08698H14.658L12.666 11.039V18.427H12.82Z" fill="black"/>
<path d="M30.748 108.895H23.239L22.013 107.64V18.566H15.577L14.198 17.311V11.875L15.424 10.62H52.968L54.347 11.735V17.032L52.815 18.565H45.766V66.517L88.366 23.304V18.565H81.93L80.704 17.31V12.013L82.236 10.48H119.167L120.699 12.013V16.195L30.748 108.894V108.895ZM23.393 108.756H30.748L120.393 16.057V12.014L119.014 10.62H82.39L81.011 12.014V17.032L82.237 18.147H88.826V23.305L45.766 67.076V18.287H52.968L54.347 16.893V11.735L53.121 10.759H15.577L14.351 11.874V17.032L15.577 18.147H22.166V107.361L23.392 108.755L23.393 108.756Z" fill="black"/>
<path d="M22.014 18.288V107.502L23.24 108.757L22.321 110.43L19.716 107.921V20.659L22.015 18.289L22.014 18.288Z" fill="#FEFEFE"/>
<path d="M22.32 110.847L19.562 108.198V20.657L22.167 18.148V107.641L23.393 109.035L22.32 110.847ZM19.868 108.059L22.32 110.429L23.086 108.896L22.013 107.641V18.567L19.868 20.658V108.06V108.059Z" fill="black"/>
<path d="M15.731 18.288L15.118 20.379H19.868L22.473 18.288H15.73H15.731Z" fill="#808080"/>
<path d="M19.868 20.657H14.964L15.73 18.287H22.932L19.867 20.657H19.868ZM15.118 20.378H19.715L22.014 18.426H15.578L15.118 20.378Z" fill="black"/>
<path d="M81.47 20.797L82.543 18.567L81.011 17.173V12.434L82.697 10.622H119.168L120.547 12.434L122.539 11.04L120.547 8.94897H81.318L79.326 10.901V18.568L81.471 20.798M49.597 57.459L45.766 66.659L88.826 23.446V18.288L49.597 57.458V57.459Z" fill="#FEFEFE"/>
<path d="M45.919 66.937L45.766 66.798L49.597 57.458L88.979 18.148V23.584L45.919 66.936V66.937ZM49.75 57.597L46.226 66.379L88.826 23.584V18.705L49.75 57.597V57.597ZM81.47 20.796L81.317 20.657L79.325 18.705V10.899L81.317 8.80798H120.699L122.844 11.178L120.699 12.711L119.32 10.759H82.696L81.01 12.432V17.171L82.542 18.565L81.469 20.795L81.47 20.796ZM79.478 18.705L81.47 20.517L82.389 18.565L80.857 17.171V12.292L82.696 10.48H119.32L120.699 12.292L122.538 11.037L120.546 9.08498H81.317L79.478 11.037V18.704V18.705Z" fill="black"/>
<path d="M54.194 12.015L56.033 10.76V18.287L53.888 20.517H49.597V57.597L45.766 66.797V18.287H52.815L54.194 17.172V12.014V12.015Z" fill="#808080"/>
<path d="M45.919 66.798H45.766V18.288H52.968L54.194 17.312V12.154L56.339 10.76V18.566L54.04 20.796H49.903V57.736L45.919 66.797V66.798ZM45.919 18.427V66.24L49.597 57.597V20.378H53.888L56.033 18.287V11.038L54.347 12.153V17.311L52.968 18.426H45.919V18.427Z" fill="black"/>
<path d="M82.39 10.621L81.011 12.015V17.173L82.237 18.428H88.673V23.446L45.766 66.798V18.427H52.815L54.347 17.033V11.875L52.968 10.899H15.578L14.352 12.154V17.451L15.578 18.706H22.167V107.78L23.393 109.035H30.748L120.546 16.336V12.293L119.167 10.899H82.39V10.621Z" fill="#CCCCCC"/>
<path d="M30.748 108.895H23.239L22.013 107.64V18.566H15.577L14.198 17.311V11.875L15.424 10.62H52.968L54.347 11.735V17.032L52.815 18.565H45.766V66.517L88.366 23.304V18.565H81.93L80.704 17.31V12.013L82.236 10.48H119.167L120.699 12.013V16.195L30.748 108.894V108.895ZM23.393 108.756H30.748L120.393 16.057V12.014L119.014 10.62H82.39L81.011 12.014V17.032L82.237 18.147H88.826V23.305L45.766 67.076V18.287H52.968L54.347 16.893V11.735L53.121 10.759H15.577L14.351 11.874V17.032L15.577 18.147H22.166V107.361L23.392 108.755L23.393 108.756Z" fill="black"/>
<path d="M120.7 12.154L122.692 11.039V18.148L32.281 110.707H22.627L23.546 108.895H30.901L120.546 16.196L120.699 12.153L120.7 12.154Z" fill="#808080"/>
<path d="M32.281 110.847H22.474L23.547 108.756H30.902L120.393 16.197L120.546 12.154L122.691 10.899V18.426L32.28 110.846L32.281 110.847ZM22.78 110.568H32.128L122.539 18.148V11.178L120.7 12.154L120.547 16.197L30.902 109.035H23.547L22.781 110.568H22.78Z" fill="black"/>
<path d="M88.673 18.427L86.681 20.518H81.471L82.697 18.427H88.673Z" fill="#808080"/>
<path d="M86.681 20.657H81.164L82.543 18.287H88.979L86.68 20.657H86.681ZM81.624 20.518H86.681L88.52 18.566H82.85L81.624 20.518Z" fill="black"/>
<path d="M67.219 70.5609C67.219 70.5609 67.066 70.5609 67.066 70.6999L65.38 72.2329L65.227 72.3719L63.541 77.2509C63.541 77.3899 63.541 77.5299 63.694 77.6689L65.073 79.0629C65.226 79.2019 65.226 79.2019 65.379 79.2019H70.742C70.895 79.2019 70.895 79.2019 71.048 79.0629L72.427 77.6689L72.58 77.5299L74.112 72.3719C74.112 72.2329 74.112 72.0929 73.959 71.9539L72.733 70.8389C72.58 70.6999 72.58 70.6999 72.427 70.6999H67.217V70.5609H67.219ZM57.258 84.3609C57.105 84.3609 56.952 84.4999 56.952 84.6399L56.339 87.2889C56.339 87.5679 56.492 87.7069 56.645 87.8469H60.016L52.201 110.15C52.201 110.429 52.201 110.568 52.507 110.708H64C64.153 110.708 64.306 110.569 64.46 110.429L65.226 108.059C65.226 107.78 65.226 107.641 64.92 107.501H62.162L69.977 84.9189C69.977 84.6399 69.977 84.5009 69.671 84.3609H57.259H57.258ZM93.576 84.4999C93.423 84.4999 93.423 84.4999 93.423 84.6389L91.124 87.2879H87.293L84.841 84.6389C84.841 84.4999 84.688 84.4999 84.535 84.4999H75.341C75.188 84.4999 75.035 84.6389 75.035 84.7789L74.269 87.2879C74.269 87.5669 74.269 87.7059 74.575 87.8459H77.18L69.671 110.01C69.671 110.289 69.671 110.428 69.977 110.568H79.784C79.937 110.568 80.09 110.429 80.09 110.289L80.856 108.198C80.856 107.919 80.856 107.78 80.55 107.64H78.711L83.461 92.5849H92.042L86.525 110.149C86.525 110.428 86.525 110.567 86.831 110.707H96.178C96.331 110.707 96.484 110.568 96.484 110.428L97.25 108.476C97.403 108.337 97.25 108.058 97.097 107.918H95.258L100.162 92.5839H108.437L102.92 110.148C102.92 110.427 102.92 110.566 103.226 110.706H113.493C113.646 110.706 113.799 110.567 113.799 110.427L114.565 108.336C114.565 108.057 114.565 107.918 114.259 107.778H112.114L118.244 87.8439V87.4259L116.405 84.9169C116.252 84.7779 116.252 84.7779 116.099 84.7779H108.897C108.744 84.7779 108.744 84.7779 108.591 84.9169L106.292 87.4259H102.308L100.009 84.7769C99.856 84.6379 99.856 84.6379 99.703 84.6379H93.573V84.4989L93.576 84.4999Z" fill="#CCCCCC"/>
<path d="M63.848 111.683H52.508C52.355 111.683 52.202 111.683 52.048 111.544C51.282 111.265 50.975 110.568 51.129 109.871L58.484 88.822H56.339C55.573 88.683 55.113 87.846 55.42 87.149L56.033 84.5C56.186 83.942 56.493 83.664 57.106 83.524H69.365C69.518 83.524 69.671 83.524 69.825 83.663C70.591 83.942 70.898 84.639 70.744 85.336L63.389 106.664H65.075C65.841 106.943 66.148 107.64 65.994 108.337L65.228 110.707C64.922 111.265 64.462 111.683 63.849 111.683H63.848ZM59.864 86.87H61.243L53.275 109.731H63.542L64.002 108.476H60.784L68.752 85.336H58.025L57.565 86.869H59.864V86.87ZM113.344 111.404H102.77C102.004 111.125 101.697 110.428 101.851 109.731L107.061 93.422H100.778L96.487 106.804H96.793C96.946 106.804 97.099 106.804 97.253 106.943C98.019 107.222 98.326 108.058 98.019 108.755L97.253 110.707C97.1 111.265 96.487 111.543 96.027 111.543H86.373C85.607 111.264 85.3 110.567 85.454 109.87L90.664 93.421H83.921L79.784 106.524H80.09C80.243 106.524 80.396 106.524 80.55 106.663C81.316 106.942 81.623 107.639 81.469 108.336L80.703 110.566C80.55 111.124 79.937 111.402 79.477 111.542H69.823C69.67 111.542 69.517 111.542 69.363 111.403C68.597 111.124 68.29 110.427 68.444 109.73L75.493 88.82H74.42C74.267 88.82 74.114 88.82 73.96 88.681C73.194 88.402 72.887 87.705 73.041 87.008L73.807 84.499C73.96 83.941 74.573 83.523 75.033 83.523H84.074C84.38 83.523 84.84 83.662 84.993 83.941L87.292 86.311H90.204L92.349 83.941C92.502 83.662 92.809 83.523 93.115 83.523H99.244C99.55 83.523 100.01 83.662 100.163 83.941L102.308 86.171H105.526L107.518 83.941C107.824 83.662 108.131 83.523 108.437 83.523H115.639C116.099 83.523 116.405 83.662 116.712 84.081L118.551 86.59C118.857 86.869 118.857 87.426 118.704 87.845L113.034 106.524H113.8C113.953 106.524 114.106 106.524 114.26 106.663C115.026 106.942 115.333 107.639 115.026 108.336L114.26 110.566C114.413 110.984 113.954 111.402 113.341 111.402L113.344 111.404ZM77.026 86.87H78.405L70.743 109.452H79.171L79.477 108.337H77.332L82.695 91.331H93.268L87.598 109.453H95.72L96.026 108.617H93.881L99.398 91.471H109.665L103.995 109.593H113.036L113.496 108.478H111.044L117.48 87.568L115.948 85.477H109.205L106.753 88.126H101.849L99.397 85.338H94.034L91.582 88.126H86.985L84.38 85.338H75.952L75.492 86.732H77.024L77.026 86.87ZM70.437 80.04H65.074C64.768 80.04 64.308 79.901 64.155 79.622L62.776 78.228C62.47 77.81 62.316 77.252 62.47 76.834L64.156 71.955C64.156 71.676 64.309 71.537 64.462 71.397L66.148 69.864C66.301 69.725 66.454 69.585 66.761 69.585H71.971C72.277 69.585 72.584 69.724 72.89 70.003L74.116 71.118C74.422 71.397 74.576 71.954 74.422 72.512L72.89 77.67C72.89 77.949 72.737 78.088 72.584 78.228L71.205 79.622C71.205 79.901 70.745 80.04 70.439 80.04H70.437ZM64.461 77.252L65.38 78.228H70.284L71.357 77.113L72.736 72.374L71.97 71.677H67.373L65.841 72.932L64.462 77.253L64.461 77.252Z" fill="black"/>
<path d="M67.219 70.9801L65.533 72.5131L63.847 77.3921L65.226 78.7861H70.589L71.968 77.3921L73.5 72.2341L72.274 71.1191H67.217L67.219 70.9801ZM57.412 84.7801L56.799 87.4291H60.477L52.509 110.29H63.849L64.615 107.92H61.55L69.518 84.7801H57.412V84.7801ZM93.576 84.7801L91.124 87.5681H86.987L84.382 84.7801H75.341L74.575 87.2891H77.487L69.825 109.871H79.479L80.245 107.78H77.946L83.003 92.0281H92.504L86.834 110.01H96.028L96.794 108.058H94.495L99.552 91.8881H108.593L102.923 110.01H113.037L113.803 107.919H111.198L117.481 87.5671L115.642 85.0581H108.44L105.988 87.7071H101.544L99.092 84.9191H93.575L93.576 84.7801Z" fill="#CCCCCC"/>
<path d="M64.001 110.429H52.355L60.323 87.5681H56.645L57.411 84.6411H69.67L61.548 107.781H64.613L64 110.43L64.001 110.429ZM52.661 110.15H63.847L64.46 107.92H61.395L69.21 84.9201H57.564L56.951 87.2901H60.629L52.661 110.151V110.15ZM113.497 110.15H103.077L108.747 92.0281H99.859L94.802 107.919H97.101L96.182 110.149H86.681L92.351 92.1671H83.157L78.253 107.779H80.552L79.786 110.149H69.979L77.641 87.5671H74.729L75.648 84.9181H84.842L87.447 87.7061H91.431L93.883 84.9181H99.859L102.311 87.7061H106.602L109.054 85.0571H116.409L118.401 87.7061L112.118 107.919H114.723L113.497 110.149V110.15ZM103.383 109.871H113.344L114.11 107.919H111.505L117.788 87.4281L115.949 84.9191H108.747L106.295 87.5681H101.851L99.399 84.7801H93.729L91.277 87.5681H86.986L84.381 84.7801H75.493L74.727 87.0101H77.639L69.977 109.592H79.325L79.938 107.64H77.639L82.696 91.6091H92.503L86.833 109.591H95.874L96.64 107.779H94.495L99.705 91.4701H109.053L103.383 109.87V109.871ZM70.437 78.7861H64.92L63.541 77.3921L65.38 72.3741L67.219 70.8411H72.276L73.502 72.0961L71.97 77.2541L70.438 78.7871L70.437 78.7861ZM65.074 78.6471H70.284L71.663 77.2531L73.195 72.2351L72.122 71.1201H67.218L65.532 72.5141L63.846 77.2531L65.072 78.6471H65.074Z" fill="black"/>
</svg>
