<svg width="128" height="128" viewBox="0 0 128 128" fill="none" xmlns="http://www.w3.org/2000/svg">
<path d="M3.656 45.043C3.656 45.043 0.629 42.852 4.266 39.93L12.734 32.336C12.734 32.336 15.16 29.777 17.723 32.008L95.898 91.336V119.786C95.898 119.786 95.859 124.254 90.141 123.762L3.656 45.043Z" fill="#2489CA"/>
<path d="M23.809 63.379L3.65599 81.742C3.65599 81.742 1.58599 83.285 3.65599 86.047L13.012 94.574C13.012 94.574 15.234 96.969 18.52 94.246L39.879 78.008L23.809 63.379Z" fill="#1070B3"/>
<path d="M59.184 63.531L96.137 35.246L95.898 6.94899C95.898 6.94899 94.32 0.772995 89.055 3.99L39.879 48.851L59.184 63.531Z" fill="#0877B9"/>
<path d="M90.14 123.797C92.285 126 94.887 125.277 94.887 125.277L123.684 111.055C127.371 108.535 126.855 105.41 126.855 105.41V20.465C126.855 16.73 123.043 15.441 123.043 15.441L98.082 3.38C92.629 0.000997543 89.055 3.99 89.055 3.99C89.055 3.99 93.648 0.672997 95.898 6.95V119.267C95.898 120.04 95.734 120.797 95.406 121.481C94.75 122.813 93.32 124.051 89.902 123.532L90.14 123.797Z" fill="#3C99D4"/>
</svg>
