<svg width="128" height="128" viewBox="0 0 128 128" fill="none" xmlns="http://www.w3.org/2000/svg">
<path d="M35.7 13.8H92.2C104.3 13.8 114.1 23.6 114.1 35.7V92.2C114.1 104.3 104.3 114.1 92.2 114.1H35.7C23.6 114.1 13.8 104.3 13.8 92.2V35.7C13.8 23.6 23.6 13.8 35.7 13.8V13.8Z" fill="url(#paint0_linear_105_45)"/>
<path d="M90.5 19.2H37.4C27.3 19.2 19.1 27.4 19.1 37.5V90.6C19.1 100.7 27.3 108.9 37.4 108.9H90.5C100.6 108.9 108.8 100.7 108.8 90.6V37.4C108.8 27.3 100.6 19.2 90.5 19.2ZM107.3 90.8C107.3 100 99.9 107.4 90.7 107.4H37.2C28.1 107.4 20.6 100 20.6 90.8V37.2C20.6 28 28 20.6 37.2 20.6H90.8C99.9 20.6 107.4 28 107.4 37.2V90.8H107.3Z" fill="white"/>
<path d="M64.1 22.8C41.5 22.8 23.1 41.2 23.1 63.8C23.1 86.4 41.5 104.8 64.1 104.8C86.8 104.8 105.1 86.4 105.1 63.8C105.1 41.2 86.7 22.8 64.1 22.8V22.8ZM64.1 104.2C41.8 104.2 23.7 86.1 23.7 63.8C23.7 41.5 41.8 23.4 64.1 23.4C86.4 23.4 104.5 41.5 104.5 63.8C104.5 86.1 86.4 104.2 64.1 104.2Z" fill="#69C5F3"/>
<path d="M64.1 31.2C46 31.2 31.4 45.8 31.4 63.9C31.4 82 46 96.5 64.1 96.5C82.2 96.5 96.8 81.9 96.8 63.8C96.8 45.7 82.1 31.2 64.1 31.2V31.2ZM64.1 95.8C46.4 95.8 32.1 81.5 32.1 63.8C32.1 46.1 46.4 31.8 64.1 31.8C81.8 31.8 96.1 46.1 96.1 63.8C96.1 81.5 81.7 95.8 64.1 95.8Z" fill="#68C5F4"/>
<path d="M32.8 71.3H95.2C97.8 71.3 99.8 73.4 99.8 75.9C99.8 78.5 97.7 80.5 95.2 80.5H32.8C30.2 80.5 28.2 78.4 28.2 75.9C28.1 73.4 30.2 71.3 32.8 71.3Z" fill="white"/>
<path d="M32.6 72.2H95.2C97.2 72.2 98.9 73.8 98.9 75.9V76C98.9 78 97.3 79.7 95.2 79.7H32.6C30.6 79.7 28.9 78.1 28.9 76V75.8C29 73.8 30.6 72.2 32.6 72.2Z" fill="#0A93E9"/>
<path d="M31.1 79.3H96.8L97.3 79H30.6L31.1 79.3Z" fill="#1694EA"/>
<path d="M29.6 78.1H98.2L98.4 77.8H29.4L29.6 78.1V78.1Z" fill="#319DEC"/>
<path d="M29 76.2H98.9V75.8H29V76.2Z" fill="#65B1EE"/>
<path d="M29.7 73.7H98.3L98.4 73.9L98.5 74.1H29.5L29.6 73.9L29.7 73.7V73.7Z" fill="#8EC6F3"/>
<path d="M31.2 72.5H96.8L97.1 72.6L97.4 72.8H30.6L30.9 72.6L31.2 72.5V72.5Z" fill="#95CAF3"/>
<path d="M93.4 72.2H92.9C92.9 72.2 94.6 73.4 94.6 76.1C94.6 78.6 92.9 79.7 92.9 79.7H93.4C93.4 79.7 95.1 78.9 95.1 76.1C95.1 73.1 93.4 72.2 93.4 72.2Z" fill="url(#paint1_linear_105_45)"/>
<path d="M88.6 72.2H88.1C88.1 72.2 89.6 73.6 89.6 76.1C89.6 78.3 88.1 79.7 88.1 79.7H88.6C88.6 79.7 90.1 78.6 90.1 76.1C90 73.4 88.6 72.2 88.6 72.2Z" fill="url(#paint2_linear_105_45)"/>
<path d="M63.7 72.2H64.2V79.7H63.7V72.2Z" fill="url(#paint3_linear_105_45)"/>
<path d="M58.8 72.2H59.3C59.3 72.2 59.1 74.1 59.1 76.1C59.1 77.9 59.3 79.7 59.3 79.7H58.8C58.8 79.7 58.6 77.9 58.6 76.1C58.6 74.1 58.8 72.2 58.8 72.2Z" fill="url(#paint4_linear_105_45)"/>
<path d="M54 72.2H54.5C54.5 72.2 54 74.1 54 76.1C54 77.9 54.5 79.7 54.5 79.7H54C54 79.7 53.5 77.9 53.5 76.1C53.5 74.1 54 72.2 54 72.2Z" fill="url(#paint5_linear_105_45)"/>
<path d="M49.1 72.2H49.6C49.6 72.2 48.9 74.1 48.9 76.1C48.9 77.9 49.6 79.7 49.6 79.7H49.1C49.1 79.7 48.4 77.9 48.4 76.1C48.4 74.1 49.1 72.2 49.1 72.2Z" fill="url(#paint6_linear_105_45)"/>
<path d="M44.2 72.2H44.7C44.7 72.2 43.7 73.8 43.7 76.1C43.7 78.1 44.7 79.7 44.7 79.7H44.2C44.2 79.7 43.2 78.1 43.2 76.1C43.2 73.8 44.2 72.2 44.2 72.2Z" fill="url(#paint7_linear_105_45)"/>
<path d="M39.3 72.2H39.8C39.8 72.2 38.3 73.6 38.3 76.1C38.3 78.3 39.8 79.7 39.8 79.7H39.3C39.3 79.7 37.8 78.6 37.8 76.1C37.9 73.4 39.3 72.2 39.3 72.2Z" fill="url(#paint8_linear_105_45)"/>
<path d="M34.5 72.2H35C35 72.2 33.3 73.4 33.3 76.1C33.3 78.6 35 79.7 35 79.7H34.5C34.5 79.7 32.8 78.9 32.8 76.1C32.8 73.1 34.5 72.2 34.5 72.2Z" fill="url(#paint9_linear_105_45)"/>
<path d="M62 34.1L93.2 88.1C94.5 90.3 93.7 93.1 91.5 94.4C89.3 95.7 86.5 94.9 85.2 92.7L54 38.7C52.7 36.5 53.5 33.7 55.7 32.4C57.9 31.1 60.7 31.9 62 34.1V34.1Z" fill="white"/>
<path d="M61.2 34.5L92.5 88.7C93.5 90.4 92.9 92.7 91.2 93.7L91 93.8C89.3 94.8 87 94.2 86 92.5L54.7 38.2C53.7 36.5 54.3 34.2 56 33.2L56.1 33.1C57.9 32.1 60.2 32.7 61.2 34.5Z" fill="url(#paint10_linear_105_45)"/>
<path d="M54.2 36.7L87 93.6L87.2 93.7L87.4 93.8L87.6 93.9L54.2 36.1V36.7V36.7Z" fill="url(#paint11_linear_105_45)"/>
<path d="M54.5 34.8L88.8 94.2H89.2L54.7 34.5L54.6 34.7L54.5 34.8V34.8Z" fill="url(#paint12_linear_105_45)"/>
<path d="M55.9 33.3L90.9 93.8L91.2 93.6L56.2 33.1L55.9 33.3V33.3Z" fill="url(#paint13_linear_105_45)"/>
<path d="M58.4 32.7L92.6 92L92.5 92.2L92.4 92.4L57.9 32.6H58.1L58.4 32.7V32.7Z" fill="url(#paint14_linear_105_45)"/>
<path d="M60.2 33.3L93 90.1V90.7L59.6 33L59.8 33.1L60 33.2L60.2 33.3V33.3Z" fill="url(#paint15_linear_105_45)"/>
<path d="M91.5 86.9L91.3 86.5C91.3 86.5 91.1 88.5 88.9 89.9C86.8 91.2 84.9 90.3 84.9 90.3L85.1 90.7C85.1 90.7 86.7 91.8 89.1 90.3C91.5 88.9 91.5 86.9 91.5 86.9ZM89 82.7L88.8 82.3C88.8 82.3 88.3 84.3 86.2 85.5C84.3 86.7 82.4 86.1 82.4 86.1L82.6 86.5C82.6 86.5 84.3 87.2 86.5 85.9C88.7 84.6 89 82.7 89 82.7V82.7Z" fill="#3C98EA"/>
<path d="M86.6 78.5L86.4 78.1C86.4 78.1 85.5 79.8 83.6 80.9C81.9 81.9 80 81.9 80 81.9L80.2 82.3C80.2 82.3 82 82.3 83.8 81.3C85.7 80.2 86.6 78.5 86.6 78.5Z" fill="#4CA4ED"/>
<path d="M84.2 74.3L84 73.9C84 73.9 82.7 75.6 81 76.5C79.4 77.4 77.5 77.7 77.5 77.7L77.7 78.1C77.7 78.1 79.6 77.8 81.2 76.9C82.8 76 84.2 74.3 84.2 74.3Z" fill="#4DA7EE"/>
<path d="M74.3 57.3L74.5 57.7001C74.5 57.7001 72.8 58.5001 71.1 59.4001C69.5 60.3001 68.1 61.5 68.1 61.5L67.9 61.1C67.9 61.1 69.4 59.9 70.9 59C72.6 58.1 74.3 57.3 74.3 57.3Z" fill="url(#paint16_linear_105_45)"/>
<path d="M71.9 53.1L72.1 53.5C72.1 53.5 70.2 54.1 68.6 55.1C67 56 65.7 57.4 65.7 57.4L65.5 57C65.5 57 66.8 55.6 68.4 54.7C70 53.6 71.9 53.1 71.9 53.1Z" fill="url(#paint17_linear_105_45)"/>
<path d="M67.4 49.8C68.7 49.4 69.7 49.2 69.7 49.2L69.5 48.8C69.5 48.8 68.6 48.9 67.6 49.3C67 49.5 66.9 50 67.4 49.8V49.8Z" fill="#9DD4F7"/>
<path d="M64.6 40.5L64.8 40.9C64.8 40.9 62.9 40.4 60.7 41.6C58.8 42.8 58.4 44.7 58.4 44.7L58.2 44.3C58.2 44.3 58.4 42.6 60.5 41.3C62.7 39.9 64.6 40.5 64.6 40.5V40.5Z" fill="url(#paint18_linear_105_45)"/>
<path d="M62.2 36.2L62.5 36.6C62.5 36.6 60.5 35.8 58.2 37.1C56 38.5 56 40.4 56 40.4L55.7 40C55.7 40 55.5 38.3 57.9 36.8C60.4 35.3 62.2 36.2 62.2 36.2V36.2Z" fill="url(#paint19_linear_105_45)"/>
<path d="M55.5 71.3C64.2 56.3 74.2 38.9 74.2 38.9C75.5 36.7 74.7 33.9 72.5 32.6C70.3 31.3 67.5 32.1 66.2 34.3C66.2 34.3 54 55.5 44.8 71.3H55.5V71.3ZM50.1 80.5C45.9 87.7 43 92.9 43 92.9C41.7 95.1 38.9 95.9 36.7 94.6C34.5 93.3 33.7 90.5 35 88.3C35 88.3 36.7 85.2 39.4 80.6C42.8 80.5 49 80.5 50.1 80.5V80.5Z" fill="white"/>
<path d="M54.4 71.3C63.2 56.1 73.4 38.4 73.4 38.4C74.4 36.7 73.8 34.4 72.1 33.4L72 33.3C70.3 32.3 68 32.9 67 34.6C67 34.6 55 55.4 45.8 71.3H54.4V71.3ZM49.1 80.5C45.1 87.5 42.2 92.5 42.2 92.5C41.2 94.2 39 94.8 37.2 93.8H37C35.3 92.8 34.7 90.6 35.7 88.8C35.7 88.8 37.6 85.5 40.5 80.5H49.1Z" fill="url(#paint20_linear_105_45)"/>
<path d="M54.1 71.3L74 36.9V36.3C74 36.3 63 55.4 53.8 71.3H54.1V71.3ZM48.7 80.5L41.1 93.7L40.8 93.9L40.5 94C40.5 94 43.9 88.1 48.3 80.5H48.7Z" fill="url(#paint21_linear_105_45)"/>
<path d="M52.6 71.3L73.6 35L73.5 34.8L73.4 34.6C73.4 34.6 61.9 54.5 52.3 71.2L52.6 71.3V71.3ZM47.3 80.5L39.3 94.3H38.9C38.9 94.3 42.3 88.4 46.9 80.4C47.1 80.5 47.3 80.5 47.3 80.5V80.5Z" fill="url(#paint22_linear_105_45)"/>
<path d="M50.4 71.3C60.3 54.2 72.2 33.5 72.2 33.5L71.9 33.3L49.9 71.3H50.4V71.3ZM45 80.6C40.6 88.3 37.3 94 37.3 94L37 93.8C37 93.8 40.2 88.2 44.6 80.6C44.8 80.5 44.7 80.5 45 80.6Z" fill="url(#paint23_linear_105_45)"/>
<path d="M48 71.3C57.9 54.2 70.2 32.8 70.2 32.8H69.8C69.8 32.8 57.5 54.1 47.6 71.3H48ZM42.2 80.5C38.2 87.4 35.5 92.1 35.5 92.1L35.6 92.3L35.7 92.5C35.7 92.5 38.6 87.5 42.7 80.5H42.2Z" fill="url(#paint24_linear_105_45)"/>
<path d="M46.5 71.3L68.5 33.2L68.3 33.3L68.1 33.4L68 33.5C68 33.5 55.8 54.6 46.2 71.3H46.5ZM41.2 80.5C37.7 86.6 35.2 90.9 35.2 90.9V90.1C35.2 90.1 37.4 86.3 40.8 80.4C41 80.5 41 80.5 41.2 80.5Z" fill="url(#paint25_linear_105_45)"/>
<path d="M66 36.2L65.8 36.6C65.8 36.6 67.6 35.7 70 37C72.2 38.2 72.3 40.3 72.3 40.3L72.5 39.9C72.5 39.9 72.7 38 70.2 36.6C67.7 35.2 66 36.2 66 36.2Z" fill="url(#paint26_linear_105_45)"/>
<path d="M63.6 40.5L63.4 40.9C63.4 40.9 65.4 40.3 67.5 41.5C69.5 42.6 69.9 44.5 69.9 44.5L70.1 44.1C70.1 44.1 69.9 42.3 67.7 41.1C65.4 39.8 63.6 40.5 63.6 40.5Z" fill="url(#paint27_linear_105_45)"/>
<path d="M61.1 44.7L60.9 45.1C60.9 45.1 62.7 45 64.7 46.2C66.5 47.2 67.4 48.8 67.4 48.8L67.6 48.4C67.6 48.4 66.7 46.8 64.9 45.8C63 44.7 61.1 44.7 61.1 44.7V44.7Z" fill="url(#paint28_linear_105_45)"/>
<path d="M58.7 49L58.5 49.4C58.5 49.4 60.5 49.7 62.2 50.7C63.8 51.6 65 53.1 65 53.1L65.2 52.7C65.2 52.7 64 51.2 62.4 50.3C60.7 49.3 58.7 49 58.7 49Z" fill="url(#paint29_linear_105_45)"/>
<path d="M56.2 53.2L56 53.5999C56 53.5999 57.9 54.0999 59.6 55.0999C61.2 55.9999 62.5 57.2999 62.5 57.2999L62.7 56.9C62.7 56.9 61.4 55.6 59.8 54.7C58.2 53.8 56.2 53.2 56.2 53.2Z" fill="url(#paint30_linear_105_45)"/>
<path d="M53.8 57.4L53.5 57.8C53.5 57.8 55.3 58.5 57 59.5C58.6 60.4 60 61.5 60 61.5L60.2 61.1C60.2 61.1 58.8 60 57.2 59.1C55.6 58.2 53.8 57.4 53.8 57.4V57.4Z" fill="url(#paint31_linear_105_45)"/>
<path d="M51.1 62.0999L51.3 61.7L57.8 65.4L57.6 65.8L51.1 62.0999V62.0999Z" fill="url(#paint32_linear_105_45)"/>
<path d="M48.7 66.4L48.9 66C48.9 66 50.5 67.2 52.2 68.1C53.8 69 55.4 69.7 55.4 69.7L55.2 70C55.2 70 53.5 69.3 51.9 68.4C50.2 67.5 48.7 66.4 48.7 66.4V66.4Z" fill="url(#paint33_linear_105_45)"/>
<path d="M47.1 71.3C46.6 70.9 46.3 70.6 46.3 70.6L46.5 70.2C46.5 70.2 47.1 70.7 47.9 71.3H47.1V71.3Z" fill="#73B9F1"/>
<path d="M43.2 80.5C43.6 80.8 44 81.1 44.5 81.4C46.3 82.4 48.1 82.3 48.1 82.3L47.9 82.7C47.9 82.7 46.1 82.8 44.3 81.8C43.6 81.4 43 80.9 42.6 80.5H43.2V80.5Z" fill="url(#paint34_linear_105_45)"/>
<path d="M38.9 83.3L39.1 82.9C39.1 82.9 39.6 84.9 41.8 86.1C43.8 87.2 45.6 86.6 45.6 86.6L45.4 87C45.4 87 43.8 87.7 41.6 86.5C39.3 85.2 38.9 83.3 38.9 83.3Z" fill="url(#paint35_linear_105_45)"/>
<path d="M36.4 87.6L36.6 87.2C36.6 87.2 36.8 89.3 39.2 90.6C41.4 91.8 43.1 90.9 43.1 90.9L42.8 91.3C42.8 91.3 41.3 92.4 38.9 91C36.4 89.6 36.4 87.6 36.4 87.6V87.6Z" fill="url(#paint36_linear_105_45)"/>
<path d="M68.8 114.2L111.6 24.3L100.8 19.2L56.2 112.7C56.2 112.7 57.6 113.4 59.4 114.2H68.8V114.2Z" fill="url(#paint37_linear_105_45)"/>
<path d="M94.1 13.8L114.1 23.3V52C107.2 48.7 61 26.7 61 26.7C61 26.7 64.2 20 67.2 13.8H94.1V13.8Z" fill="url(#paint38_radial_105_45)"/>
<path d="M44.5 110.2C44.2 110.8 43.7 111.5 43.8 112.6C43.9 116.7 50.6 120.5 54.5 120.5C57.2 120.5 58.1 119.4 59.1 117.4C60.1 115.4 45.6 107.8 44.5 110.2V110.2Z" fill="url(#paint39_radial_105_45)"/>
<path d="M90.6 25.1C90.6 25.1 100.9 27.6 101.7 28.3C102.5 29 100.4 33 100 33.6C96.7 37.6 86.4 59.7 86.4 59.7L76.9 54.3C76.9 54.3 85.4 38.5 88.4 32.9C90.3 29.1 90.6 25.1 90.6 25.1V25.1Z" fill="url(#paint40_linear_105_45)"/>
<path d="M114.4 19.9C116.2 21.2 118.6 20.9 120.5 20.6C121.8 20.4 119.8 22.3 117.6 26.7C115.4 31.1 115.5 31.4 115.2 31.1C114.9 30.8 105 25.2 105.3 24.7C105.7 24.2 107.3 13.3 108.1 13.6C111 14.3 111.5 17.8 114.4 19.9V19.9Z" fill="url(#paint41_linear_105_45)"/>
<path d="M99 32.2C99.7 31.1 102.9 24.3 108 24.3C110.3 24.3 114.7 30.1 115.1 30.9C115.4 31.6 114.4 34.4 113.9 33.1C113.3 31.6 110.8 28.4 108.1 28.4C105.4 28.4 101.7 31.5 100.8 32.6C99.9 33.6 98.3 33.3 99 32.2V32.2Z" fill="url(#paint42_linear_105_45)"/>
<path d="M98.8 31.8C99.3 31 101.6 27.5 102.7 26.4C103.8 25.3 106.6 22.4 109 22C111.4 21.6 113.9 26.5 113.1 27.5C112.5 28.2 111.5 27.4 110.3 26.4C109.1 25.5 108.3 23.7 104.5 26.6C103.2 27.6 101.9 28.4 98.9 32.7C98.1 33.8 98.3 32.6 98.8 31.8V31.8Z" fill="url(#paint43_linear_105_45)"/>
<path d="M86.4 61C86.8 60.2 87.3 59 86.2 58.1C85 57.2 79.4 54.2 78.4 54C77.4 53.8 76.6 54 76.2 54.7C75.8 55.4 45.1 108 44.5 109.5C43.9 111 43.8 112.1 44.7 112.4C45.6 112.7 55.9 117.6 56.9 118.7C57.9 119.8 58.4 118.6 58.8 118C60.7 115.6 85.9 61.8 86.4 61Z" fill="url(#paint44_linear_105_45)"/>
<path d="M99.5 31.6C100 30.9 101.2 28.9 102.7 27.1C103.7 25.9 109.1 23.3 110.3 19.1C111 16.8 109.9 14.5 108.4 13.5C103.3 10.4 94.5 5.5 81.6 5.5C72.9 5.5 69.2 8.4 69.2 8.4H73.6L88.9 14.4L90.8 22.4C90.8 22.4 91 25.1 90.1 28.2C89.5 30.7 89.3 32.2 88.4 34.7C89.1 35 90.7 33.9 92.5 34.4C94.1 34.8 95.1 37 96.2 35.7C98.1 33.2 98.7 32.7 99.5 31.6V31.6Z" fill="url(#paint45_linear_105_45)"/>
<path d="M90.5 25.4C89.7 18 87.9 11 69.1 11.1C70.3 9.90001 73.2 8.70001 73.2 8.70001L69.1 8.40001C69.1 8.40001 69.7 7.90001 70.9 7.80001C81.9 6.90001 91.7 9.20001 91 23.5C90.9 25.8 90.7 26.8 90.5 25.4Z" fill="url(#paint46_linear_105_45)"/>
<path d="M69.1 11.1C70.4 10.6 72.2 10.3 75.6 10.5C79.8 10.7 85.1 12.3 87.3 14.3C88.4 15.3 88.3 14.5 87.1 13.2C84 9.60001 79.3 8.80001 73.2 8.70001C72.5 8.60001 70.2 9.90001 69.1 11.1V11.1Z" fill="url(#paint47_linear_105_45)"/>
<path d="M120.7 20.6L126.2 23.4C126.2 23.4 124.1 26.2 122.4 29.4C120.6 32.8 119.4 36.5 119.4 36.5L114.1 33.3C114.1 33.3 115.4 29.7 117.3 26.2C118.8 23.3 120.7 20.6 120.7 20.6V20.6Z" fill="url(#paint48_linear_105_45)"/>
<path d="M126.2 23.4C126.6 23.6 125.3 26.7 123.4 30.3C121.5 33.9 119.7 36.7 119.4 36.5C119 36.3 120.3 33.2 122.2 29.6C124 26 125.8 23.2 126.2 23.4V23.4Z" fill="#BFC0D0"/>
<defs>
<linearGradient id="paint0_linear_105_45" x1="63.947" y1="114.165" x2="63.947" y2="13.784" gradientUnits="userSpaceOnUse">
<stop stop-color="#1578E4"/>
<stop offset="1" stop-color="#00C3F2"/>
</linearGradient>
<linearGradient id="paint1_linear_105_45" x1="94.037" y1="79.666" x2="94.037" y2="72.184" gradientUnits="userSpaceOnUse">
<stop stop-color="#1492E7"/>
<stop offset="1" stop-color="#DBEDFB"/>
</linearGradient>
<linearGradient id="paint2_linear_105_45" x1="89.042" y1="79.666" x2="89.042" y2="72.184" gradientUnits="userSpaceOnUse">
<stop stop-color="#1492E7"/>
<stop offset="1" stop-color="#DBEDFB"/>
</linearGradient>
<linearGradient id="paint3_linear_105_45" x1="63.947" y1="79.666" x2="63.947" y2="72.184" gradientUnits="userSpaceOnUse">
<stop stop-color="#1492E7"/>
<stop offset="1" stop-color="#DBEDFB"/>
</linearGradient>
<linearGradient id="paint4_linear_105_45" x1="58.952" y1="79.666" x2="58.952" y2="72.184" gradientUnits="userSpaceOnUse">
<stop stop-color="#1492E7"/>
<stop offset="1" stop-color="#DBEDFB"/>
</linearGradient>
<linearGradient id="paint5_linear_105_45" x1="53.958" y1="79.666" x2="53.958" y2="72.184" gradientUnits="userSpaceOnUse">
<stop stop-color="#1492E7"/>
<stop offset="1" stop-color="#DBEDFB"/>
</linearGradient>
<linearGradient id="paint6_linear_105_45" x1="48.963" y1="79.666" x2="48.963" y2="72.184" gradientUnits="userSpaceOnUse">
<stop stop-color="#1492E7"/>
<stop offset="1" stop-color="#DBEDFB"/>
</linearGradient>
<linearGradient id="paint7_linear_105_45" x1="43.968" y1="79.666" x2="43.968" y2="72.184" gradientUnits="userSpaceOnUse">
<stop stop-color="#1492E7"/>
<stop offset="1" stop-color="#DBEDFB"/>
</linearGradient>
<linearGradient id="paint8_linear_105_45" x1="38.852" y1="79.666" x2="38.852" y2="72.184" gradientUnits="userSpaceOnUse">
<stop stop-color="#1492E7"/>
<stop offset="1" stop-color="#DBEDFB"/>
</linearGradient>
<linearGradient id="paint9_linear_105_45" x1="33.857" y1="79.666" x2="33.857" y2="72.184" gradientUnits="userSpaceOnUse">
<stop stop-color="#1492E7"/>
<stop offset="1" stop-color="#DBEDFB"/>
</linearGradient>
<linearGradient id="paint10_linear_105_45" x1="73.58" y1="94.25" x2="73.58" y2="32.642" gradientUnits="userSpaceOnUse">
<stop stop-color="#1285E7"/>
<stop offset="1" stop-color="#00B5EF"/>
</linearGradient>
<linearGradient id="paint11_linear_105_45" x1="87.464" y1="93.978" x2="54.081" y2="36.156" gradientUnits="userSpaceOnUse">
<stop stop-color="#2B90E7"/>
<stop offset="1" stop-color="#00B6EF"/>
</linearGradient>
<linearGradient id="paint12_linear_105_45" x1="89.073" y1="94.327" x2="54.583" y2="34.589" gradientUnits="userSpaceOnUse">
<stop stop-color="#3795EA"/>
<stop offset="1" stop-color="#49C4F2"/>
</linearGradient>
<linearGradient id="paint13_linear_105_45" x1="91.026" y1="93.735" x2="56.072" y2="33.193" gradientUnits="userSpaceOnUse">
<stop stop-color="#3696EA"/>
<stop offset="1" stop-color="#90D9F6"/>
</linearGradient>
<linearGradient id="paint14_linear_105_45" x1="92.582" y1="92.332" x2="58.065" y2="32.547" gradientUnits="userSpaceOnUse">
<stop stop-color="#3097EA"/>
<stop offset="1" stop-color="#B5E5F9"/>
</linearGradient>
<linearGradient id="paint15_linear_105_45" x1="93.083" y1="90.686" x2="59.741" y2="32.936" gradientUnits="userSpaceOnUse">
<stop stop-color="#3A98EA"/>
<stop offset="1" stop-color="#BCE7FA"/>
</linearGradient>
<linearGradient id="paint16_linear_105_45" x1="67.981" y1="61.226" x2="74.457" y2="57.4871" gradientUnits="userSpaceOnUse">
<stop stop-color="#00A4EC"/>
<stop offset="1" stop-color="#B9DFF6"/>
</linearGradient>
<linearGradient id="paint17_linear_105_45" x1="65.487" y1="56.906" x2="71.962" y2="53.167" gradientUnits="userSpaceOnUse">
<stop stop-color="#00A4EC"/>
<stop offset="1" stop-color="#B9DFF6"/>
</linearGradient>
<linearGradient id="paint18_linear_105_45" x1="57.93" y1="43.819" x2="64.364" y2="40.105" gradientUnits="userSpaceOnUse">
<stop stop-color="#00B4EF"/>
<stop offset="1" stop-color="#C3E9FA"/>
</linearGradient>
<linearGradient id="paint19_linear_105_45" x1="55.424" y1="39.477" x2="61.9" y2="35.738" gradientUnits="userSpaceOnUse">
<stop stop-color="#00B4EF"/>
<stop offset="1" stop-color="#C3E9FA"/>
</linearGradient>
<linearGradient id="paint20_linear_105_45" x1="54.566" y1="94.401" x2="54.566" y2="32.794" gradientUnits="userSpaceOnUse">
<stop stop-color="#1285E7"/>
<stop offset="1" stop-color="#00B5EF"/>
</linearGradient>
<linearGradient id="paint21_linear_105_45" x1="40.681" y1="94.131" x2="74.064" y2="36.311" gradientUnits="userSpaceOnUse">
<stop stop-color="#3194E9"/>
<stop offset="1" stop-color="#71CFF4"/>
</linearGradient>
<linearGradient id="paint22_linear_105_45" x1="39.063" y1="94.482" x2="73.557" y2="34.736" gradientUnits="userSpaceOnUse">
<stop stop-color="#5AA6EC"/>
<stop offset="1" stop-color="#A2DEF8"/>
</linearGradient>
<linearGradient id="paint23_linear_105_45" x1="37.118" y1="93.885" x2="72.072" y2="33.343" gradientUnits="userSpaceOnUse">
<stop stop-color="#66ABEE"/>
<stop offset="1" stop-color="#BEE8FA"/>
</linearGradient>
<linearGradient id="paint24_linear_105_45" x1="35.568" y1="92.482" x2="70.085" y2="32.697" gradientUnits="userSpaceOnUse">
<stop stop-color="#7BB6F0"/>
<stop offset="1" stop-color="#B1E3F9"/>
</linearGradient>
<linearGradient id="paint25_linear_105_45" x1="35.056" y1="90.872" x2="68.415" y2="33.092" gradientUnits="userSpaceOnUse">
<stop stop-color="#5AA6EC"/>
<stop offset="1" stop-color="#AFE3F9"/>
</linearGradient>
<linearGradient id="paint26_linear_105_45" x1="66.362" y1="35.689" x2="72.838" y2="39.428" gradientUnits="userSpaceOnUse">
<stop stop-color="#C1E7FA"/>
<stop offset="1" stop-color="#89D4F5"/>
</linearGradient>
<linearGradient id="paint27_linear_105_45" x1="63.856" y1="40.03" x2="70.332" y2="43.768" gradientUnits="userSpaceOnUse">
<stop stop-color="#C1E7FA"/>
<stop offset="1" stop-color="#89D4F5"/>
</linearGradient>
<linearGradient id="paint28_linear_105_45" x1="61.273" y1="44.505" x2="67.748" y2="48.243" gradientUnits="userSpaceOnUse">
<stop stop-color="#C1E7FA"/>
<stop offset="1" stop-color="#89D4F5"/>
</linearGradient>
<linearGradient id="paint29_linear_105_45" x1="58.761" y1="48.855" x2="65.236" y2="52.594" gradientUnits="userSpaceOnUse">
<stop stop-color="#B0DFF8"/>
<stop offset="1" stop-color="#52BDF2"/>
</linearGradient>
<linearGradient id="paint30_linear_105_45" x1="56.25" y1="53.204" x2="62.727" y2="56.943" gradientUnits="userSpaceOnUse">
<stop stop-color="#B4DEF8"/>
<stop offset="1" stop-color="#4EB5F0"/>
</linearGradient>
<linearGradient id="paint31_linear_105_45" x1="53.74" y1="57.553" x2="60.215" y2="61.291" gradientUnits="userSpaceOnUse">
<stop stop-color="#B4DEF8"/>
<stop offset="1" stop-color="#4EB5F0"/>
</linearGradient>
<linearGradient id="paint32_linear_105_45" x1="51.239" y1="61.886" x2="57.713" y2="65.624" gradientUnits="userSpaceOnUse">
<stop stop-color="#B5DDF8"/>
<stop offset="1" stop-color="#46AEEE"/>
</linearGradient>
<linearGradient id="paint33_linear_105_45" x1="48.735" y1="66.22" x2="55.211" y2="69.959" gradientUnits="userSpaceOnUse">
<stop stop-color="#96CEF4"/>
<stop offset="1" stop-color="#46AAEE"/>
</linearGradient>
<linearGradient id="paint34_linear_105_45" x1="42.719" y1="80.135" x2="47.681" y2="83" gradientUnits="userSpaceOnUse">
<stop stop-color="#8FC1F2"/>
<stop offset="1" stop-color="#3193EA"/>
</linearGradient>
<linearGradient id="paint35_linear_105_45" x1="38.634" y1="83.717" x2="45.11" y2="87.456" gradientUnits="userSpaceOnUse">
<stop stop-color="#8FC1F2"/>
<stop offset="1" stop-color="#3193EA"/>
</linearGradient>
<linearGradient id="paint36_linear_105_45" x1="36.124" y1="88.063" x2="42.599" y2="91.8019" gradientUnits="userSpaceOnUse">
<stop stop-color="#8FC1F2"/>
<stop offset="1" stop-color="#3193EA"/>
</linearGradient>
<linearGradient id="paint37_linear_105_45" x1="76.722" y1="64.933" x2="89.179" y2="71.008" gradientUnits="userSpaceOnUse">
<stop offset="0.001"/>
<stop offset="1" stop-opacity="0"/>
</linearGradient>
<radialGradient id="paint38_radial_105_45" cx="0" cy="0" r="1" gradientUnits="userSpaceOnUse" gradientTransform="translate(95.24 25.13) rotate(116.706) scale(16.1806 27.9983)">
<stop/>
<stop offset="1" stop-opacity="0"/>
</radialGradient>
<radialGradient id="paint39_radial_105_45" cx="0" cy="0" r="1" gradientUnits="userSpaceOnUse" gradientTransform="translate(51.2071 114.958) rotate(26.1166) scale(7.901 4.49749)">
<stop offset="0.417" stop-color="#0C0C12"/>
<stop offset="1" stop-color="#3D4651"/>
</radialGradient>
<linearGradient id="paint40_linear_105_45" x1="84.758" y1="39.174" x2="94.522" y2="44.149" gradientUnits="userSpaceOnUse">
<stop stop-color="#344351"/>
<stop offset="0.1" stop-color="#9697A0"/>
<stop offset="0.181" stop-color="#8B8C95"/>
<stop offset="0.351" stop-color="#787A83"/>
<stop offset="0.47" stop-color="#71747D"/>
<stop offset="0.591" stop-color="#777982"/>
<stop offset="0.749" stop-color="#87898F"/>
<stop offset="0.8" stop-color="#8E8F94"/>
<stop offset="0.849" stop-color="#3D3B42"/>
<stop offset="0.9" stop-color="#606E84"/>
</linearGradient>
<linearGradient id="paint41_linear_105_45" x1="117.884" y1="29.257" x2="106.863" y2="14.364" gradientUnits="userSpaceOnUse">
<stop offset="0.27" stop-color="#262B33"/>
<stop offset="0.45" stop-color="#74747E"/>
<stop offset="0.54" stop-color="#B0B0BC"/>
<stop offset="0.73" stop-color="#74747E"/>
</linearGradient>
<linearGradient id="paint42_linear_105_45" x1="98.542" y1="30.424" x2="114.815" y2="28.322" gradientUnits="userSpaceOnUse">
<stop offset="0.14" stop-color="#606E84"/>
<stop offset="0.4" stop-color="#9899A5"/>
<stop offset="0.73" stop-color="#475768"/>
<stop offset="0.92" stop-color="#262B33"/>
</linearGradient>
<linearGradient id="paint43_linear_105_45" x1="106.128" y1="31.808" x2="104.549" y2="22.854" gradientUnits="userSpaceOnUse">
<stop stop-color="#101215" stop-opacity="0.1"/>
<stop offset="0.46" stop-color="#101215" stop-opacity="0.7"/>
<stop offset="0.7" stop-color="#474951"/>
<stop offset="0.91" stop-color="#7B7D88"/>
</linearGradient>
<linearGradient id="paint44_linear_105_45" x1="58.131" y1="81.721" x2="73.237" y2="89.154" gradientUnits="userSpaceOnUse">
<stop offset="0.115" stop-color="#2C3952"/>
<stop offset="0.374" stop-color="#3D414E"/>
<stop offset="0.55" stop-color="#474A54"/>
<stop offset="0.754" stop-color="#4E5057"/>
<stop offset="0.892" stop-color="#323945"/>
<stop offset="1" stop-color="#143052"/>
</linearGradient>
<linearGradient id="paint45_linear_105_45" x1="81.508" y1="31.679" x2="93.19" y2="6.047" gradientUnits="userSpaceOnUse">
<stop offset="0.118" stop-color="#6D7078" stop-opacity="0"/>
<stop offset="0.2" stop-color="#6D7078" stop-opacity="0.7"/>
<stop offset="0.34" stop-color="#35363A"/>
<stop offset="0.374" stop-color="#1D1F22"/>
<stop offset="0.4" stop-color="#101215"/>
<stop offset="0.5" stop-color="#16171A"/>
<stop offset="0.56" stop-color="#292A2E"/>
<stop offset="0.688" stop-color="#4B4D51"/>
<stop offset="0.807" stop-color="#63666B"/>
<stop offset="0.915" stop-color="#72757B"/>
<stop offset="1" stop-color="#777A80"/>
</linearGradient>
<linearGradient id="paint46_linear_105_45" x1="69.064" y1="16.837" x2="91.026" y2="16.837" gradientUnits="userSpaceOnUse">
<stop stop-color="#4A4D56"/>
<stop offset="1" stop-color="#29292D"/>
</linearGradient>
<linearGradient id="paint47_linear_105_45" x1="69.064" y1="11.697" x2="88.054" y2="11.697" gradientUnits="userSpaceOnUse">
<stop stop-color="#767880"/>
<stop offset="0.41" stop-color="#0C0A0B"/>
</linearGradient>
<linearGradient id="paint48_linear_105_45" x1="116.332" y1="34.756" x2="123.707" y2="21.982" gradientUnits="userSpaceOnUse">
<stop stop-color="#858997"/>
<stop offset="0.23" stop-color="#244668"/>
<stop offset="0.282" stop-color="#1A3249"/>
<stop offset="0.4" stop-color="#040506"/>
<stop offset="0.464" stop-color="#313236"/>
<stop offset="0.546" stop-color="#65656E"/>
<stop offset="0.607" stop-color="#868691"/>
<stop offset="0.64" stop-color="#92929E"/>
</linearGradient>
</defs>
</svg>
